<svg xmlns="http://www.w3.org/2000/svg" id="Ebene_1" x="0" y="0" version="1.1" viewBox="0 0 240 120" xml:space="preserve">
  <defs/>
    <path d="M69.47 52.17h16.2c3.14 0 5.83 1.97 6.9 4.74h-30c1.07-2.77 3.75-4.74 6.9-4.74m28.84 7.4c0-6.98-5.66-12.65-12.65-12.65h-16.2c-6.99 0-12.65 5.66-12.65 12.65s5.66 12.65 12.65 12.65h28.22c.28 0 .51-.23.51-.51v-4.22c0-.28-.23-.51-.51-.51H69.47c-3.18 0-5.89-2.02-6.93-4.83H97.8c.28 0 .51-.23.51-.51v-2.07zM32.7 66.54H5.32v-8.82H32.7c2.43 0 4.41 1.98 4.41 4.41a4.41 4.41 0 01-4.41 4.41M5.33 43.09H32.7c2.43 0 4.41 1.98 4.41 4.41s-1.98 4.41-4.41 4.41H5.32l.01-8.82zm34.51 11.72c1.9-1.86 3.09-4.45 3.09-7.32 0-6.13-4.87-10.23-10.5-10.23H-.03a.47.47 0 00-.47.47v34.12c0 .28.23.51.51.51h32.42c5.63 0 10.5-4.6 10.5-10.23.01-2.87-1.18-5.46-3.09-7.32M114.79 67.13c-4.08 0-7.41-3.32-7.41-7.41 0-4.08 3.32-7.41 7.41-7.41h22.46c.3 0 .53.24.53.53v13.74c0 .3-.24.53-.53.53h-22.46v.02zm0-20.06c-6.98 0-12.65 5.66-12.65 12.65s5.66 12.65 12.65 12.65h22.64c-.96 2.98-3.75 5.14-7.05 5.14h-15.05c-.3 0-.53.24-.53.53v4.17c0 .3.24.53.53.53h15.05c6.98 0 12.65-5.66 12.65-12.65V47.61c0-.3-.24-.53-.53-.53h-27.71v-.01zM210.9 51.78v-4.17c0-.3-.24-.54-.54-.54h-8.18c-4.59 0-8.32 3.73-8.32 8.32v16.44c0 .3.24.54.54.54h4.17c.3 0 .54-.24.54-.53V55.4c0-1.7 1.38-3.08 3.08-3.08h8.18c.29 0 .53-.25.53-.54M51.84 72.37h-4.09a.57.57 0 01-.57-.57V47.65c0-.32.26-.57.57-.57h4.09c.32 0 .57.26.57.57v24.14c0 .32-.25.58-.57.58M159.97 52.32h16.2c3.14 0 5.83 1.97 6.9 4.74h-30c1.08-2.77 3.76-4.74 6.9-4.74m28.85 7.4c0-6.98-5.66-12.65-12.65-12.65h-16.2c-6.98 0-12.65 5.66-12.65 12.65s5.66 12.65 12.65 12.65h28.22c.28 0 .51-.23.51-.51v-4.22c0-.28-.23-.51-.51-.51h-28.22c-3.18 0-5.89-2.02-6.93-4.83h35.27c.28 0 .51-.23.51-.51v-2.07zM239.5 71.95v-4.26a.56.56 0 00-.56-.56h-11.16c-4.08 0-7.41-3.32-7.41-7.41v-7.4h18.59c.29 0 .53-.24.53-.53v-4.14a.57.57 0 00-.57-.57h-18.55v-9.36c0-.25-.2-.45-.45-.45h-4.24c-.3 0-.55.24-.55.55v21.91c0 6.98 5.66 12.65 12.65 12.65h11.3c.23-.01.42-.2.42-.43M52.39 42.5H48.2c-.29 0-.53-.24-.53-.53v-4.18c0-.29.24-.53.53-.53h4.18c.29 0 .53.24.53.53v4.18c0 .3-.23.53-.52.53" class="st0"/>
</svg>