<svg xmlns="http://www.w3.org/2000/svg" width="22" height="17.932" fill="none">
  <defs/>
  <path fill="#000" d="M19.333.92C20.249.92 21 1.61 21 2.453V15.48c0 .844-.751 1.533-1.667 1.533H2.667C1.75 17.012 1 16.323 1 15.479V2.453C1 1.61 1.75.92 2.667.92zm0-.92H2.667C1.196 0 0 1.1 0 2.453V15.48c0 1.352 1.196 2.452 2.667 2.452h16.666c1.471 0 2.667-1.1 2.667-2.452V2.453C22 1.1 20.804 0 19.333 0z"/>
  <path fill="#000" d="M21 3.985V2.453C21 1.61 20.249.92 19.333.92H2.667C1.75.92 1 1.61 1 2.453v1.532l20-.001zM8.918 6.289H6.423v2.296h2.495zm6.659 0h-2.495v2.296h2.495zm3.33 0H16.41v2.296h2.497zm-6.659 0H9.752v2.296h2.496zM8.918 9.35H6.423v2.295h2.495zm-3.328 0H3.093v2.295H5.59zm9.987 0h-2.495v2.295h2.495zm3.33 0H16.41v2.295h2.497zm-6.659 0H9.752v2.295h2.496zm-3.33 3.062H6.423v2.295h2.495zm-3.328 0H3.093v2.295H5.59zm9.987 0h-2.495v2.295h2.495zm-3.329 0H9.752v2.295h2.496z"/>
</svg>