<svg xmlns="http://www.w3.org/2000/svg" width="20.097" height="15" fill="none">
    <defs/>
    <path fill="#000" d="M2.766 0A2.776 2.776 0 000 2.766V12.234A2.777 2.777 0 002.768 15H17.33a2.777 2.777 0 002.768-2.766V2.766A2.778 2.778 0 0017.33 0H2.767zm.002 1.31h14.56c.805 0 1.457.653 1.457 1.458v.5h.002v8.964a1.452 1.452 0 01-1.457 1.457H2.768a1.453 1.453 0 01-1.457-1.457V2.768A1.454 1.454 0 012.768 1.31z" color="#000" font-family="sans-serif" font-weight="400" overflow="visible" style="line-height:normal;font-variant-ligatures:normal;font-variant-position:normal;font-variant-caps:normal;font-variant-numeric:normal;font-variant-alternates:normal;font-feature-settings:normal;text-indent:0;text-align:start;text-decoration-line:none;text-decoration-style:solid;text-decoration-color:#000;text-transform:none;text-orientation:mixed;white-space:normal;shape-padding:0;isolation:auto;mix-blend-mode:normal;solid-color:#000;solid-opacity:1"/>
    <path fill="#000" d="M2.723 3.584a.75.75 0 00-.424 1.375l7.326 4.996a.75.75 0 00.846 0l7.326-4.996a.75.75 0 10-.846-1.238L10.05 8.428 3.145 3.72a.75.75 0 00-.422-.137z" color="#000" font-family="sans-serif" font-weight="400" overflow="visible" style="line-height:normal;font-variant-ligatures:normal;font-variant-position:normal;font-variant-caps:normal;font-variant-numeric:normal;font-variant-alternates:normal;font-feature-settings:normal;text-indent:0;text-align:start;text-decoration-line:none;text-decoration-style:solid;text-decoration-color:#000;text-transform:none;text-orientation:mixed;white-space:normal;shape-padding:0;isolation:auto;mix-blend-mode:normal;solid-color:#000;solid-opacity:1"/>
</svg>