<svg version="1.1" xmlns="http://www.w3.org/2000/svg" width="1024" height="1024" viewBox="0 0 1024 1024">
    <path d="M288.563 0c-159.182 0.465-288.099 129.382-288.563 288.519v446.918c0.465 159.182 129.382 288.099 288.519 288.563h447.054c159.108-0.58 287.924-129.445 288.427-288.515v-446.922c-0.503-159.166-129.397-288.060-288.515-288.563h-446.717zM288.7 85.333h446.737c112.225 0.039 203.191 91.005 203.23 203.226v446.741c0 112.316-91.050 203.366-203.366 203.366v0h-446.532c-0.020 0-0.044 0-0.068 0-112.278 0-203.298-91.020-203.298-203.298 0-0.024 0-0.048 0-0.072v0.004-446.737c0.039-112.249 91.044-203.23 203.298-203.23 0 0 0 0 0 0v0z"></path>
    <path d="M789.367 204.8c-0.197-0.002-0.429-0.003-0.661-0.003-15.9 0-30.416 5.928-41.457 15.694l0.067-0.058c-12.484 11.659-20.265 28.217-20.265 46.592s7.781 34.933 20.228 46.558l0.037 0.034c12.288 10.923 27.443 15.565 42.052 15.565 0.197 0.002 0.43 0.004 0.663 0.004 15.823 0 30.267-5.902 41.25-15.625l-0.066 0.057c12.484-11.659 20.265-28.217 20.265-46.592s-7.781-34.933-20.228-46.558l-0.037-0.034c-10.929-9.707-25.403-15.637-41.262-15.637-0.23 0-0.46 0.001-0.689 0.004h0.035zM789.367 260.915c0.546 0 1.502 0 3.277 1.638 1.775 1.57 2.731 5.188 2.731 4.369s-0.956 2.935-2.731 4.574c-1.775 1.57-2.731 1.57-3.345 1.57-0.546 0-1.638 0-3.413-1.57-1.775-1.638-2.731-5.393-2.731-4.574s0.956-2.799 2.731-4.369c1.775-1.57 2.867-1.638 3.413-1.638z"></path>
    <path d="M512 337.101c-66.219 0-120.218 25.941-155.307 65.399-35.157 39.595-51.883 90.931-51.883 141.79s16.725 102.195 51.883 141.722c28.399 31.949 71.543 50.995 121.173 58.709v6.827h34.133c66.219 0 120.218-26.010 155.307-65.536 35.157-39.526 52.019-90.863 52.019-141.722 0-50.927-16.862-102.127-52.019-141.653-35.089-39.458-89.088-65.536-155.307-65.536zM512 405.367c49.152 0 81.783 17.203 104.448 42.667 22.528 25.395 34.611 60.553 34.611 96.256s-12.083 70.997-34.679 96.393c-22.528 25.395-55.228 42.667-104.38 42.667s-81.647-17.271-104.243-42.667c-22.596-25.463-34.679-60.757-34.679-96.393 0-35.703 12.083-70.861 34.679-96.256 22.528-25.463 55.091-42.667 104.243-42.667z"></path>
</svg>
