<svg xmlns="http://www.w3.org/2000/svg" width="97" height="8" fill="none">
    <defs/>
    <g fill="#000">
        <path fill-rule="evenodd" d="M29.936 4.462v-.865c-.02-1.212.449-1.752 1.728-1.756h2.961c1.28.004 1.748.544 1.73 1.756v.865c.027 1.175-.303 1.77-1.594 1.757h-3.233c-1.29.012-1.622-.582-1.592-1.757zm-2.303-1.633v2.4c.007 2.31 1.37 2.794 3.484 2.77h4.054c2.115.024 3.477-.46 3.484-2.77v-2.4C38.648.521 37.285.038 35.171.06h-4.053c-2.115-.021-3.478.462-3.485 2.77zm-3.485 2.389c-.138.672-.565 1.01-1.54 1.001H19.8c-1.291.012-1.622-.582-1.591-1.757v-.865c-.02-1.212.448-1.752 1.727-1.756h2.535c.973.003 1.477.317 1.654 1h2.378v-.012C26.495.521 25.132.038 23.018.06H19.39c-2.114-.021-3.477.462-3.485 2.77v2.4c.008 2.31 1.371 2.794 3.485 2.77h3.628c2.114.024 3.477-.46 3.485-2.77v-.01h-2.355zm61.943-.756v-.865c-.019-1.212.448-1.752 1.728-1.756h2.961c1.28.004 1.747.544 1.728 1.756v.865c.03 1.175-.3 1.77-1.593 1.757h-3.231c-1.291.012-1.623-.582-1.593-1.757zm-2.303-1.633v2.4c.009 2.31 1.371 2.794 3.485 2.77h4.055c2.113.024 3.475-.46 3.482-2.77v-2.4C94.803.521 93.441.038 91.327.06h-4.054c-2.114-.021-3.476.462-3.485 2.77zM51.816 7.922h9.573V6.21h-9.573v1.71zm.016-3.031h7.025V3.179h-7.041l.016 1.712zm-.016-3.032h9.573V.16h-9.573v1.7zm18.838 3.359c-.139.672-.566 1.01-1.54 1.001h-2.808c-1.291.012-1.623-.582-1.593-1.757v-.865c-.018-1.212.45-1.752 1.73-1.756h2.534c.974.003 1.476.317 1.654 1h2.378v-.012C73 .521 71.639.038 69.524.06h-3.629c-2.113-.021-3.477.462-3.484 2.77v2.4c.007 2.31 1.371 2.794 3.484 2.77h3.629c2.114.024 3.477-.46 3.485-2.77v-.01h-2.355zM73.58.16v1.715h3.552v6.047h2.234V1.875h3.552V.16H73.58zM50.368 7.922V.16h-2.233v5.848L43.387.16H39.93v7.762h2.233V2.075l4.748 5.847h3.458zM9.861 7.894c-3.576.327-6.434-.105-8.417-1.249-2.857-1.65-1.343-4.16 3.38-5.603C7.045.362 8.872.039 11.234.06c-1.325.146-3.104.4-4.3.767C2.318 2.238.99 4.774 3.963 6.492c1.32.762 3.74 1.234 5.898 1.402z" clip-rule="evenodd"/>
        <path fill-rule="evenodd" d="M10.652 1.676c.148.347.269.71.35 1.086.25-.078.493-.173.726-.281a3.008 3.008 0 00-1.076-.805zM9.42 3.404v1.25c.44.013.867.071 1.278.17a5.49 5.49 0 000-1.59 6.295 6.295 0 01-1.278.17zm-.383-.374V1.38a3.547 3.547 0 00-.753.123c-.217.427-.38.882-.481 1.36.397.097.81.153 1.234.166zm-1.74.999c0-.303.022-.602.067-.895A6.293 6.293 0 016.5 2.8a2.36 2.36 0 00-.35 1.23c0 .444.127.862.35 1.23a6.26 6.26 0 01.863-.336 5.908 5.908 0 01-.067-.894zm4.432 1.548a5.784 5.784 0 00-.726-.281 6.055 6.055 0 01-.351 1.086c.428-.193.796-.47 1.077-.805zm-1.096-2.712a5.649 5.649 0 00-.485-1.369 3.599 3.599 0 00-.728-.115V3.03a6.04 6.04 0 001.213-.165zM7.778 6.37a6.032 6.032 0 01-.345-1.074 5.92 5.92 0 00-.71.274c.275.33.636.606 1.055.8zM9.42 5.028v1.648c.252-.013.495-.052.728-.114.217-.43.383-.888.485-1.37a5.984 5.984 0 00-1.213-.164zm2.531-2.238a6.081 6.081 0 01-.88.344 5.859 5.859 0 010 1.789c.305.092.598.21.881.345.227-.37.356-.791.356-1.239 0-.448-.13-.87-.357-1.24zM7.803 5.192c.1.48.264.935.48 1.362.24.066.493.109.754.123v-1.65a6.012 6.012 0 00-1.234.165zm-1.08-2.704c.23.106.466.198.71.274.08-.372.2-.73.345-1.074a3 3 0 00-1.055.8zm2.314.916a6.305 6.305 0 01-1.299-.17 5.517 5.517 0 00-.001 1.59c.418-.1.854-.159 1.3-.171V3.404z" clip-rule="evenodd"/>
        <path d="M96.037 0a.952.952 0 00-.964.94c0 .52.432.942.964.942A.952.952 0 0097 .94c0-.52-.431-.94-.963-.94zm0 1.7a.77.77 0 01-.778-.76.77.77 0 01.778-.758c.43 0 .776.34.777.759a.77.77 0 01-.777.76zm.265-.644a.458.458 0 00-.109-.083.322.322 0 00.2-.09A.259.259 0 0096.46.7a.273.273 0 00-.044-.155.228.228 0 00-.118-.094.736.736 0 00-.234-.027h-.427v.983h.203v-.41h.04c.048 0 .082.003.103.01a.161.161 0 01.06.041c.02.02.056.068.108.145l.147.213h.243l-.123-.191a1.124 1.124 0 00-.116-.16zM95.99.84h-.15V.59h.158c.083 0 .132.002.149.004a.125.125 0 01.076.039c.018.02.027.046.027.08a.128.128 0 01-.02.073.11.11 0 01-.057.042.821.821 0 01-.183.012z"/>
    </g>
</svg>