<svg xmlns="http://www.w3.org/2000/svg" width="15.002" height="15" fill="none">
  <defs/>
  <path fill="#000" d="M14.67 13.328c-.223.522-.821.862-1.3 1.128-.628.341-1.268.544-1.982.544-.99 0-1.886-.405-2.79-.735a9.983 9.983 0 01-1.865-.883c-1.811-1.12-3.995-3.303-5.114-5.114a9.968 9.968 0 01-.884-1.865C.405 5.498 0 4.602 0 3.612c0-.714.203-1.354.544-1.982.266-.479.607-1.076 1.129-1.3C2.024.171 2.77 0 3.152 0c.076 0 .15 0 .224.031.224.076.459.597.565.81.34.608.67 1.225 1.022 1.822.17.277.49.618.49.949 0 .65-1.928 1.598-1.928 2.173 0 .288.266.66.415.916C5.018 8.64 6.36 9.983 8.3 11.06c.255.149.628.415.916.415.575 0 1.523-1.928 2.173-1.928.33 0 .672.32.949.49.597.351 1.214.681 1.822 1.022.213.107.734.341.81.565a.55.55 0 01.031.223c0 .384-.171 1.13-.33 1.482z"/>
</svg>