<svg xmlns="http://www.w3.org/2000/svg" width="18.468" height="15" fill="none">
  <defs/>
  <path fill="#000" d="M16.57 3.738c.012.164.012.328.012.492 0 5.004-3.81 10.77-10.77 10.77-2.144 0-4.137-.621-5.812-1.699.304.035.596.047.914.047 1.77 0 3.398-.597 4.7-1.618a3.791 3.791 0 01-3.54-2.625c.234.035.469.058.715.058.34 0 .68-.047.997-.129A3.783 3.783 0 01.75 5.32v-.047a3.797 3.797 0 001.71.481A3.78 3.78 0 011.29.692a10.755 10.755 0 007.803 3.96A4.242 4.242 0 019 3.785 3.783 3.783 0 0112.785 0a3.77 3.77 0 012.764 1.195A7.434 7.434 0 0017.952.28a3.774 3.774 0 01-1.664 2.086c.76-.082 1.5-.292 2.18-.586a8.123 8.123 0 01-1.898 1.957z"/>
</svg>