<svg xmlns="http://www.w3.org/2000/svg" width="19.931" height="14.999" fill="none">
  <defs/>
  <path fill="#000" d="M9.965 1.661c3.495 0 5.812.167 5.812.167.323.036 1.038.036 1.667.705 0 0 .51.5.658 1.65.177 1.343.168 2.687.168 2.687v1.26s.01 1.345-.167 2.689c-.148 1.14-.658 1.649-.658 1.649-.63.658-1.345.658-1.668.695 0 0-2.317.176-5.811.176-4.32-.037-5.645-.167-5.645-.167-.37-.066-1.205-.046-1.835-.705 0 0-.51-.509-.658-1.65C1.651 9.474 1.66 8.13 1.66 8.13V6.87s-.009-1.345.167-2.689c.149-1.149.658-1.649.658-1.649.63-.668 1.344-.668 1.668-.705 0 0 2.317-.166 5.812-.166zm0-1.661C6.452 0 4.132.164 4.034.171L4 .174l-.034.003-.07.007c-.443.041-1.62.149-2.619 1.209C1.055 1.628.376 2.456.18 3.97-.008 5.406 0 6.822 0 6.88v1.25c0 .047-.008 1.463.18 2.903.21 1.618.98 2.457 1.131 2.609.916.957 2.055 1.089 2.602 1.151l.122.015.051.008.073.009c.057.005 1.45.137 5.793.174 3.53 0 5.854-.174 5.952-.181l.032-.003.032-.003.071-.007c.44-.04 1.61-.149 2.607-1.19.125-.124.895-.964 1.105-2.584.188-1.438.18-2.854.18-2.914V6.87c0-.048.008-1.464-.181-2.904-.195-1.51-.873-2.337-1.097-2.573-.999-1.06-2.175-1.169-2.618-1.21l-.069-.006-.035-.003-.035-.003C15.798.164 13.478 0 9.965 0z"/>
  <path fill="#000" d="M12.736 7.344L8.25 5v4.662z"/>
</svg>