<svg xmlns="http://www.w3.org/2000/svg" id="Ebene_1" x="0" y="0" version="1.1" viewBox="0 0 240 120" xml:space="preserve">
  <defs/>
	<path fill="#1691a6" d="M114.34 53.06c.35-.73.73-.64 1.02-.61 9.32 1.1 16.11-3.24 21.57-10.2 3.52-4.49 6.81-9.16 10.19-13.76 9.87-13.41 26.77-12.03 35.55-6.27 5.04 3.31 7.96 8.45 7.49 13.76-1.46-.42-2.15-1.75-3.18-2.6-5.51-4.51-12.83-3.79-16.58 1.71-3.69 5.39-1 11.89 5.39 13.12 3.53.68 6.92.07 10.23-1.11 2.33-.84 4.72-1.61 6.93-2.71 8.7-4.35 16.99-2.98 25.1 1.55 4.89 2.73 9.06 6.35 12.68 10.61.35.41.94.75.61 1.48-.63.4-1.1-.12-1.55-.38-9.22-5.27-18.22-4.15-27.08.93-3.38 1.94-6.51 4.25-9.63 6.57-10.43 7.76-21.45 8.24-32.9 2.6-3.11-1.53-6.06-3.39-9.04-5.16-5.86-3.46-12.18-4.98-18.96-4.89-5.16.07-10.25-.43-14.97-2.8-1.03-.52-2.06-1-2.87-1.84z"/>
	<path d="M69.97 89.42h16.2c3.14 0 5.83 1.97 6.9 4.74h-30c1.07-2.77 3.75-4.74 6.9-4.74m28.84 7.4c0-6.98-5.66-12.65-12.65-12.65h-16.2c-6.99 0-12.65 5.66-12.65 12.65s5.66 12.65 12.65 12.65h28.22c.28 0 .51-.23.51-.51v-4.22c0-.28-.23-.51-.51-.51H69.97c-3.18 0-5.89-2.02-6.93-4.83H98.3c.28 0 .51-.23.51-.51v-2.07zM33.2 103.79H5.82v-8.82H33.2c2.43 0 4.41 1.98 4.41 4.41a4.41 4.41 0 01-4.41 4.41M5.83 80.34H33.2c2.43 0 4.41 1.98 4.41 4.41s-1.98 4.41-4.41 4.41H5.82l.01-8.82zm34.51 11.72c1.9-1.86 3.09-4.45 3.09-7.32 0-6.13-4.87-10.23-10.5-10.23H.47a.47.47 0 00-.47.47v34.12c0 .28.23.51.51.51h32.42c5.63 0 10.5-4.6 10.5-10.23.01-2.87-1.18-5.46-3.09-7.32M115.29 104.38c-4.08 0-7.41-3.32-7.41-7.41 0-4.08 3.32-7.41 7.41-7.41h22.46c.3 0 .53.24.53.53v13.74c0 .3-.24.53-.53.53h-22.46v.02zm0-20.06c-6.98 0-12.65 5.66-12.65 12.65s5.66 12.65 12.65 12.65h22.64c-.96 2.98-3.75 5.14-7.05 5.14h-15.05c-.3 0-.53.24-.53.53v4.17c0 .3.24.53.53.53h15.05c6.98 0 12.65-5.66 12.65-12.65V84.86c0-.3-.24-.53-.53-.53h-27.71v-.01zM211.4 89.03v-4.17c0-.3-.24-.54-.54-.54h-8.18c-4.59 0-8.32 3.73-8.32 8.32v16.44c0 .3.24.54.54.54h4.17c.3 0 .54-.24.54-.53V92.65c0-1.7 1.38-3.08 3.08-3.08h8.18c.29 0 .53-.25.53-.54M52.34 109.62h-4.09a.57.57 0 01-.57-.57V84.9c0-.32.26-.57.57-.57h4.09c.32 0 .57.26.57.57v24.14c0 .32-.25.58-.57.58M160.47 89.57h16.2c3.14 0 5.83 1.97 6.9 4.74h-30c1.08-2.77 3.76-4.74 6.9-4.74m28.85 7.4c0-6.98-5.66-12.65-12.65-12.65h-16.2c-6.98 0-12.65 5.66-12.65 12.65s5.66 12.65 12.65 12.65h28.22c.28 0 .51-.23.51-.51v-4.22c0-.28-.23-.51-.51-.51h-28.22c-3.18 0-5.89-2.02-6.93-4.83h35.27c.28 0 .51-.23.51-.51v-2.07zM240 109.2v-4.26a.56.56 0 00-.56-.56h-11.16c-4.08 0-7.41-3.32-7.41-7.41v-7.4h18.59c.29 0 .53-.24.53-.53V84.9a.57.57 0 00-.57-.57h-18.55v-9.36c0-.25-.2-.45-.45-.45h-4.24c-.3 0-.55.24-.55.55v21.91c0 6.98 5.66 12.65 12.65 12.65h11.3c.23-.01.42-.2.42-.43M52.39 79.75H48.2c-.29 0-.53-.24-.53-.53v-4.18c0-.29.24-.53.53-.53h4.18c.29 0 .53.24.53.53v4.18c0 .3-.23.53-.52.53" class="st1"/>
</svg>