<svg xmlns="http://www.w3.org/2000/svg" id="Ebene_1" x="0" y="0" version="1.1" viewBox="0 0 240 120" xml:space="preserve">
  <defs/>
	<path d="M52.39 79.75H48.2c-.29 0-.53-.24-.53-.53v-4.18c0-.29.24-.53.53-.53h4.18c.29 0 .53.24.53.53v4.18c0 .3-.23.53-.52.53M69.97 89.42h16.2c3.14 0 5.83 1.97 6.9 4.74h-30c1.07-2.77 3.75-4.74 6.9-4.74m28.84 7.4c0-6.98-5.66-12.65-12.65-12.65h-16.2c-6.99 0-12.65 5.66-12.65 12.65s5.66 12.65 12.65 12.65h28.22c.28 0 .51-.23.51-.51v-4.22c0-.28-.23-.51-.51-.51H69.97c-3.18 0-5.89-2.02-6.93-4.83H98.3c.28 0 .51-.23.51-.51v-2.07zM33.2 103.79H5.82v-8.82H33.2c2.43 0 4.41 1.98 4.41 4.41a4.41 4.41 0 01-4.41 4.41M5.83 80.34H33.2c2.43 0 4.41 1.98 4.41 4.41s-1.98 4.41-4.41 4.41H5.82l.01-8.82zm34.51 11.72c1.9-1.86 3.09-4.45 3.09-7.32 0-6.13-4.87-10.23-10.5-10.23H.47a.47.47 0 00-.47.47v34.12c0 .28.23.51.51.51h32.42c5.63 0 10.5-4.6 10.5-10.23.01-2.87-1.18-5.46-3.09-7.32M115.29 104.38c-4.08 0-7.41-3.32-7.41-7.41 0-4.08 3.32-7.41 7.41-7.41h22.46c.3 0 .53.24.53.53v13.74c0 .3-.24.53-.53.53h-22.46zm0-20.06c-6.98 0-12.65 5.66-12.65 12.65s5.66 12.65 12.65 12.65h22.64c-.96 2.98-3.75 5.14-7.05 5.14h-15.05c-.3 0-.53.24-.53.53v4.17c0 .3.24.53.53.53h15.05c6.98 0 12.65-5.66 12.65-12.65V84.86c0-.3-.24-.53-.53-.53h-27.71zM211.4 89.03v-4.17c0-.3-.24-.54-.54-.54h-8.18c-4.59 0-8.32 3.73-8.32 8.32v16.44c0 .3.24.54.54.54h4.17c.3 0 .54-.24.54-.53V92.65c0-1.7 1.38-3.08 3.08-3.08h8.18c.29 0 .53-.25.53-.54M52.34 109.62h-4.09a.57.57 0 01-.57-.57V84.9c0-.32.26-.57.57-.57h4.09c.32 0 .57.26.57.57v24.14c0 .32-.25.58-.57.58M160.47 89.57h16.2c3.14 0 5.83 1.97 6.9 4.74h-30c1.08-2.77 3.76-4.74 6.9-4.74m28.85 7.4c0-6.98-5.66-12.65-12.65-12.65h-16.2c-6.98 0-12.65 5.66-12.65 12.65s5.66 12.65 12.65 12.65h28.22c.28 0 .51-.23.51-.51v-4.22c0-.28-.23-.51-.51-.51h-28.22c-3.18 0-5.89-2.02-6.93-4.83h35.27c.28 0 .51-.23.51-.51v-2.07zM240 109.2v-4.26a.56.56 0 00-.56-.56h-11.16c-4.08 0-7.41-3.32-7.41-7.41v-7.4h18.59c.29 0 .53-.24.53-.53V84.9a.57.57 0 00-.57-.57h-18.55v-9.36c0-.25-.2-.45-.45-.45h-4.24c-.3 0-.55.24-.55.55v21.91c0 6.98 5.66 12.65 12.65 12.65h11.3c.23-.01.42-.2.42-.43" class="st0"/>
	<path fill="#00823e" d="M145.01 72.59c14.68-8.37 19.22-14.51 20.48-16.7a.407.407 0 00-.47-.59c-11.05 3.32-17.1-2.75-19.9-7.38-.13-.22 0-.5.25-.53 7.88-1.08 1.21-8.77-3.16-10.33a.4.4 0 01-.1-.7c1.92-1.45 6.8-5.94.8-10.62-.28-.22-.13-.66.22-.66 3.35-.02 12.11-.91 3.96-10.35-.22-.25-.01-.63.32-.59 5.53.68 6.04-6.79 5.91-9.65-.01-.35.4-.53.65-.29 3.03 2.96 7.46 8.26 11.93 2.63.16-.2.47-.19.6.03 1.13 1.77 5.47 8.09 9.76 7.8 2.41-.16 8.3-5.02 9.17-11.26.04-.28.44-.37.55-.12 3.47 4.45 7.45 2.14 10.15-3.12.14-.27.53-.21.58.08.44 2.69 2.52 9.07 12.31 1.09.26-.21.64.04.54.36-1.04 3.17-.32 9.01 2.49 9.48.3.05.41.4.19.61-2.26 2.12-4.05 7.57.12 11.12.22.19.17.53-.1.64-5.86 2.4-11.7 14.44 2.22 18.5.17.05.28.21.25.38-.21 1.66-.9 9.81 5.78 12.2.33.12.33.58 0 .7-10.15 3.71-8.7 9.98-7.82 12.18.11.28-.17.55-.45.44-7.75-3.01-12.8 3.34-13.85 4.83a.37.37 0 01-.52.09c-7.93-5.14-15.6-4.68-15.6 1.83 0 .22-.21.37-.42.31-1.62-.47-7.34-2.36-9.66-6.04-2.77-4.4-3.05-5.98-3.92-10.62-.05-.29-.43-.37-.59-.13-1.38 2.09-6.33 8.61-18.76 17.04-.12.08-.29.09-.42.01l-3.5-2.04c-.24-.14-.23-.49.01-.63"/>
</svg>