<svg xmlns="http://www.w3.org/2000/svg" width="22" height="19" fill="none">
    <defs/>
    <path fill="#000000" d="M19.333 1.115c.916 0 1.667.69 1.667 1.533v13.027c0 .844-.751 1.533-1.667 1.533H2.667C1.75 17.207 1 16.518 1 15.674V2.648c0-.843.75-1.533 1.667-1.533h16.666zm0-.92H2.667C1.196.195 0 1.295 0 2.648v13.027c0 1.352 1.196 2.452 2.667 2.452h16.666c1.471 0 2.667-1.1 2.667-2.452V2.648C22 1.295 20.804.195 19.333.195z"/>
    <path fill="#000000" d="M21 4.18V2.648c0-.843-.751-1.533-1.667-1.533H2.667C1.75 1.115 1 1.805 1 2.648V4.18l20-.001zM8.918 6.484H6.423V8.78h2.495V6.484zM15.577 6.484h-2.495V8.78h2.495V6.484zM18.907 6.484H16.41V8.78h2.497V6.484zM12.248 6.484H9.752V8.78h2.496V6.484zM8.918 9.545H6.423v2.295h2.495V9.545zM5.59 9.545H3.093v2.295H5.59V9.545zM15.577 9.545h-2.495v2.295h2.495V9.545zM18.907 9.545H16.41v2.295h2.497V9.545zM12.248 9.545H9.752v2.295h2.496V9.545zM8.918 12.607H6.423v2.295h2.495v-2.295zM5.59 12.607H3.093v2.295H5.59v-2.295zM15.577 12.607h-2.495v2.295h2.495v-2.295zM12.248 12.607H9.752v2.295h2.496v-2.295z"/>
</svg>