<svg xmlns="http://www.w3.org/2000/svg" width="300" height="95.725">
	<defs/>
	<path d="M29.141 69.672c0 1.236-.191 2.184-.564 2.872-.376.667-1.017 1.144-1.917 1.416-.895.286-2.184.429-3.859.429h-12.78c-1.305 0-2.414-.164-3.338-.498a4.234 4.234 0 01-2.202-1.768c-.548-.847-.817-2.015-.817-3.486V58.505c0-2.197.553-3.69 1.67-4.511 1.123-.823 2.681-1.226 4.688-1.226H22.69c2.089 0 3.648.278 4.667.855 1.021.561 1.532 1.884 1.532 3.946v1.223h3.206v-2.295c0-4.484-2.83-6.718-8.479-6.718H9.623c-1.827 0-3.354.201-4.585.617s-2.213 1.032-2.944 1.842c-.73.826-1.257 1.858-1.588 3.121C.164 56.62 0 58.124 0 59.881v7.385c0 1.745.167 3.256.509 4.513.341 1.263.873 2.303 1.599 3.121.717.818 1.699 1.443 2.93 1.853 1.231.413 2.758.617 4.585.617h13.812c2.451 0 4.347-.28 5.683-.833 1.323-.569 2.234-1.376 2.721-2.459.5-1.075.741-2.488.741-4.241v-1.845h-3.438v1.68zM74.928 51.975c-.625-.622-1.538-1.099-2.75-1.417-1.215-.325-2.774-.489-4.683-.489H45.896v27.013h3.655v-10.67h17.841c1.244 0 2.244.109 2.988.326.746.217 1.333.67 1.75 1.35.42.691.632 1.71.632 3.055v5.94h3.42v-6.909c0-1.363-.333-2.478-1.011-3.325-.675-.855-1.874-1.432-3.613-1.736v-.085c1.575-.148 2.803-.593 3.666-1.347.868-.738 1.308-1.991 1.308-3.759v-2.203c0-1.4-.111-2.543-.344-3.457a4.814 4.814 0 00-1.26-2.287zm-2.061 7.536c0 .947-.193 1.702-.591 2.268-.396.577-1.027.993-1.884 1.25-.858.262-1.961.395-3.293.395H49.552V53.057H66.18c1.787 0 3.167.125 4.127.373.966.251 1.636.654 2.004 1.213.373.561.556 1.355.556 2.406v2.462zM170.144 53.057h13.643v24.025h3.663V53.057h13.657v-2.988h-30.963zM213.046 50.069h3.668v27.013h-3.668zM213.046 40.883h3.668v2.991h-3.668zM90.56 74.379h26.705v2.991H90.56zM90.572 62.221h19.623v2.991H90.572zM90.572 50.069h26.68v2.985h-26.68zM296.49 53.054v-2.985h-26.682v27.298h26.682v-2.986h-23.019v-9.169h15.962v-2.991h-15.962v-9.167zM164.061 77.082l-16.046-27.013h-4.548l-16.035 27.013h4.14l3.348-5.702h.019l1.757-2.984h-.008l9.053-15.339 9.065 15.332h-11.45l-1.766 2.991h14.973l3.367 5.702z"/>
	<g>
		<linearGradient id="a" x1="233.667" x2="298.67" y1="51.619" y2="51.619" gradientTransform="rotate(1.903 379.634 41.826)" gradientUnits="userSpaceOnUse">
			<stop offset="0" stop-color="#69c0ac"/>
			<stop offset=".376" stop-color="#1b878f"/>
			<stop offset="1" stop-color="#50427b"/>
		</linearGradient>
		<path fill="url(#a)" d="M239.563 64.192c-.127-.059-.159-.187-.321-.22-.126-4.969-.27-9.065-.213-12.899-.085-.432-.575.286-.616.597-.677-1.273.384-4.261-1.004-5.723-.363-.086-.173.589-.304.822-.131-.501-.193-1.052-.237-1.617l-3.559 4.668s4.883 19.033-.438 45.904c.219-.406.436-.819.624-1.294.05-.137-.004-.162-.019-.229.125-.284.134-.081.223-.209.547-1.211 1.285-2.91 1.648-3.967.478-.535.132-.567.629-1.421.417-.712.887-2.079 1.31-2.76.43-.867.884-1.769 1.362-2.703.187-.426.376-.855.594-1.282.135-.265.279-.436.449-.743 1.063-1.914 1.857-4.147 2.912-5.473.35-.75.746-1.308 1.042-1.958.257-.566.281-1.045.752-1.894.268-.481.488-.704.825-1.199a75.826 75.826 0 013.849-7.455c.188-.319.426-.633.621-.979.403-.725.684-1.469 1.152-2.006.074.033.215-.195.267-.075.524-.958.753-1.456 1.297-2.477.328-.556.535-.613.818-.981-.233.34-.319.733-.647 1.184-.066.178.114.09-.008.326-.47.764-.577.634-1.077 1.608.042.04.372-.321.468-.183.078.362-.874 1.829-.773 2.166.456-.715.923-1.439 1.396-2.17.104-.182.208-.342.308-.473a359.783 359.783 0 016.047-8.992c.019-.031.033-.06.053-.092a.846.846 0 01.1-.129c.205-.295.416-.595.625-.892.22-.407.38-.772.566-1.132.135.025.055.215-.087.447C270.261 33.973 283.319 17.517 300 0c-31.257 28.279-48.93 50.643-61.147 74.212.42-3.442.633-6.817.71-10.02z"/>
		<linearGradient id="b" x1="238.552" x2="311.556" y1="52.275" y2="52.275" gradientTransform="rotate(1.903 379.634 41.826)" gradientUnits="userSpaceOnUse">
			<stop offset="0" stop-color="#69c0ac"/>
			<stop offset=".376" stop-color="#1b878f"/>
			<stop offset="1" stop-color="#50427b"/>
		</linearGradient>
		<path fill="url(#b)" d="M238.988 49.577c-.171-2.793-1.189-3.811-.311-3.949.06.026.108.061.156.096 0 .001.368.581.155 3.853z"/>
	</g>
</svg>