<svg xmlns="http://www.w3.org/2000/svg" fill="none" viewBox="0 0 155 67">
    <defs/>
    <path fill="#FFD100" d="M107.912 15.315c.202.298.269.796.674.961.607.365.742 1.161.607 1.924 0 0-.371 2.222-2.697 4.677l-.337.364a1.466 1.466 0 01-1.046.398c-.438.033-1.551-.63-2.056-.464-.843.166-1.483-.066-1.686-1.094a7.29 7.29 0 00-.573-1.791c-.101-.232-.81-.697-.843-1.294 0 0-.54-2.554 1.315-3.018 1.113-.298 2.731-.398 3.203-.497.472-.1.708-.63 1.281-.83a2.229 2.229 0 012.158.664z"/>
    <path fill="#EB2938" d="M60.513 12.31c.102.895.169 1.857.338 2.819.127.36.296.706.505 1.028.101.265.135.63.303.796.27.31.639.52 1.046.597.404.1.809-.365 1.045-.166a2.478 2.478 0 002.495.498 13.118 13.118 0 001.787-.83.944.944 0 00.505-.795.785.785 0 00-.337-.697 17.838 17.838 0 00-1.753-.829 1.368 1.368 0 00-1.281.066c-.337.266-.64.896-1.214 1.427-.573.53-.843.099-.944-.365a2.091 2.091 0 01.135-1.095c.169-.331 1.45-1.923 1.99-2.587.539-.663-.54-2.388-1.484-2.156-.944.232-3.102.531-3.136 2.289zM60.712 19.361c-.64.63-.438 2.952.034 3.416.288.17.645.183.944.034a2.341 2.341 0 001.18-1.161c.303-.995.337-1.758-.169-2.322-.674-.63-1.348-.564-1.989.033zM58.757 17.948c-.169-.763-1.247-1.293-2.09-1.26-.439.033-1.315.066-1.483.829-.17.763.708 2.09 1.786 1.924 1.08-.166 1.99-.73 1.787-1.493z"/>
    <path fill="#0099DB" d="M44.26 20.224c.337-.498.607-1.228.27-1.891a2.47 2.47 0 00-.64-.895 8.927 8.927 0 00-1.484-1.062c-.202-.133-.438-.265-.708-.43-.394-.2-.8-.377-1.214-.532-2.46-.762-5.36.365-5.495.465a1.395 1.395 0 00-.405.365c-.27.53.101.961.304 1.227.202.265 1.483 1.293 3.169 2.42.738.45 1.547.775 2.393.963.665.203 1.361.293 2.057.265a2.437 2.437 0 001.753-.895z"/>
    <path fill="#69BF29" d="M73.76 53.854c.91.962 2.832.863 3.573.83.356.006.706-.086 1.012-.266a.731.731 0 01.64-.033c.439.166.81.365 1.248.498.91.298 1.955 1.426 2.663 1.757.64.298 1.214 0 1.281-.696a2.562 2.562 0 00-.337-1.658 10.781 10.781 0 00-1.618-2.123 6.59 6.59 0 00-2.73-1.46 5.315 5.315 0 00-1.046-.099 7.028 7.028 0 00-3.675.63c-.236.133-1.146.432-1.247 1.327-.034.464-.135.829.236 1.293z"/>
    <path fill="#000" d="M30 34.65l-.473-.099a1.46 1.46 0 00-.54 0c-.201.033-.404.1-.606.133-.343.078-.698.09-1.045.033a.126.126 0 01-.101-.165c.1-.597.202-1.161.303-1.758v-.133c.02-.391.077-.78.168-1.16a2.54 2.54 0 00.068-.532.558.558 0 01.034-.232c.147-.432.26-.876.337-1.326.033-.067.033-.166.067-.233l.607-1.591a9.18 9.18 0 00.303-1.029c.034-.132.101-.265.135-.398a.26.26 0 01.101-.066c.034-.033.068 0 .101.033a.55.55 0 01.101.2c.111.357.19.723.236 1.094.101.73.169 1.459.27 2.189v.165c.067.93.101 1.89.169 2.82.033.331.033.663.033.995 0 .232.068.43.068.53.102.53-.033.597-.337.53zm4.584 9.354a6.556 6.556 0 01-.27-1.625c.006-.2-.005-.4-.033-.597a1.097 1.097 0 010-.332c.09-.369.113-.75.067-1.128a1.41 1.41 0 010-.53c.034-.564-.033-1.128-.033-1.725a.958.958 0 00-.068-.298 6.706 6.706 0 01-.168-.796c-.01-.398-.09-.79-.236-1.161a6.983 6.983 0 00-.27-.896c-.067-.298-.101-.63-.169-.928a12.557 12.557 0 01-.27-1.626 4.097 4.097 0 01-.1-.63c-.068-.199-.068-.43-.135-.63a.902.902 0 01-.034-.299 5.66 5.66 0 00-.101-1.06 4.145 4.145 0 00-.202-.93c-.068-.232-.169-.43-.236-.663a6.16 6.16 0 00-.236-.73 16.477 16.477 0 00-.203-.663 1.158 1.158 0 01-.135-.563l-.202-.498a.853.853 0 01-.1-.265 1.373 1.373 0 00-.136-.498 1.45 1.45 0 01-.034-.762.565.565 0 00.034-.332 1.644 1.644 0 00-.169-.431.176.176 0 00-.067-.1.477.477 0 00-.505-.1.63.63 0 01-.236.067 2.436 2.436 0 00-1.113.697.251.251 0 00-.068.165c-.004.22-.061.437-.168.63.067.166-.101.3-.135.432-.03.159-.074.314-.135.464-.337.896-.674 1.758-1.011 2.654a17.03 17.03 0 00-.742 2.553c-.27 1.194-.506 2.388-.742 3.582-.033.1-.067.232-.1.332a.375.375 0 01-.237.265c-.163.07-.332.126-.505.166-.27.096-.506.27-.675.498a.301.301 0 00-.067.331.2.2 0 01-.034.199.243.243 0 00.034.398c.27.169.566.292.877.365a.15.15 0 01.135.164v.002c-.068.53-.17 1.062-.237 1.592a15.459 15.459 0 00-.033 1.758c0 .232.033.431.033.663 0 .498-.033 1.028-.067 1.526.007.111-.004.224-.034.332a.735.735 0 00-.033.464c.055.148.078.306.067.464a.374.374 0 00.101.265l.337.332c.074.066.17.102.27.1a.644.644 0 00.607-.332c.034-.1.1-.166.135-.265a.505.505 0 00-.034-.697.177.177 0 01-.067-.1.546.546 0 01-.169-.43v-.531a1.327 1.327 0 010-.365c.028-.276.04-.552.034-.83-.013-.212.01-.425.067-.63.04-.174.062-.352.067-.53.01-.588.056-1.175.136-1.758 0-.1.033-.2.033-.298a7.81 7.81 0 01.101-.929.333.333 0 01.101-.133.885.885 0 01.27-.1c.337-.032.674-.065 1.011-.132a.477.477 0 01.304 0c.225-.005.45.005.674.033.326.04.655.028.978-.033h.134a.256.256 0 01.27.2c0 .098.034.198.034.298l.1 1.591c.068.664.102 1.327.203 1.99.101.664.101 1.327.169 1.99a.815.815 0 01-.101.564.731.731 0 00-.101.465c.017.19.05.378.1.563a.53.53 0 00.17.366.405.405 0 01.134.265c.027.359.155.704.371.994.188.254.357.52.506.797a.26.26 0 00.135.132c.3.222.69.284 1.045.166.067-.033.169-.033.236-.066a.465.465 0 00.135-.1c.114-.211.29-.384.506-.497a.406.406 0 00.135-.265.914.914 0 01.27-.697.374.374 0 00.1-.265c.086-.322.05-.664-.1-.962-.17-.1-.17-.1-.17-.133zm4.62.596a.4.4 0 00.235-.43.472.472 0 01.172-.352.51.51 0 01.135-.133c.217-.147.42-.314.607-.497.148-.177.348-.304.573-.365a2.652 2.652 0 011.011-.232 1.51 1.51 0 00.169-.034l.607-.099c.324-.045.634-.158.91-.331.067-.033.135-.1.202-.133.19-.227.34-.486.439-.763a.443.443 0 00.033-.166.456.456 0 00-.202-.431c-.303-.232-.674-.2-1.045-.298h-.169c-.602.1-1.199.233-1.787.398a2.4 2.4 0 00-.708.364c-.249.206-.535.364-.843.465-.135.066-.236 0-.236-.166s-.033-.265-.033-.398a.905.905 0 00-.034-.299 3.278 3.278 0 01-.135-.796c0-.265-.101-.53-.101-.829v-.365a.888.888 0 000-.298 2.91 2.91 0 01-.101-.929v-.166c-.135-.365-.101-.796-.202-1.16a1.349 1.349 0 01-.068-.63v-.133a3.334 3.334 0 01.034-1.161.54.54 0 000-.232c0-.233.034-.432.034-.664 0-.166.033-.298.033-.464-.001-.39.033-.778.101-1.161.034-.556.102-1.11.203-1.658.034-.469.101-.934.202-1.393.034-.266.135-.531.169-.797.033-.331.135-.663.168-.995.01-.354.09-.703.236-1.028a.279.279 0 000-.232.45.45 0 00-.438-.365.503.503 0 00-.337.299 4.425 4.425 0 00-.236.597 6.458 6.458 0 00-.337 1.061 17.77 17.77 0 01-.438 1.924 7 7 0 00-.236 1.426.91.91 0 01-.034.299c-.169.995-.303 1.99-.438 3.018l-.102 1.094c-.033.398-.067.763-.067 1.161-.028.764-.005 1.528.068 2.289.067.63.067 1.227.1 1.857a10.6 10.6 0 00.068 1.459c-.006.1.006.202.033.298 0 .1.034.233.034.332 0 .1-.034.199-.034.266v.132a.297.297 0 00.034.166l.101.398a.455.455 0 010 .298.148.148 0 00.068.2c.2.13.372.3.505.497.034.066.101.133.135.2.06.054.128.1.203.132a.257.257 0 01.168.033c.169.166.371.1.573-.066l-.003-.014zm31.255-17.166a1.048 1.048 0 00-.101-.299.457.457 0 00-.101-.132 1.874 1.874 0 00-.27-.166.591.591 0 00-.573-.033c-.127.059-.25.125-.37.199-.227.161-.43.35-.608.563-.067.1-.168.166-.236.266a.509.509 0 00-.168.464c.112.624.157 1.257.135 1.89a3.423 3.423 0 000 .83c.033.398 0 .796 0 1.194v.53c0 .597.033 1.194 0 1.758v.233c-.034.795-.203 3.283-.337 3.681-.169.464-.54-.298-.742-.53-.202-.233.034-.664 0-1.328a4.914 4.914 0 00-.337-1.36 7.046 7.046 0 010-.862 7.381 7.381 0 000-.862c0-.232-.068-1.028-.337-1.36-.27-.331 0-.829 0-1.194a2.536 2.536 0 00-.169-.962c-.168-.63-.034-2.62-.034-3.449v-.232a.354.354 0 00-.27-.299.178.178 0 00-.1.067c-.067.199-.135.398-.203.63-.12.382-.222.769-.303 1.16-.1.63-.236 1.228-.337 1.858-.034.299-.1.597-.135.896-.067.73-.135 1.492-.236 2.222 0 .166-.034.365-.034.53v2.488s.034 1.028.034 1.526c0 .597.034 1.227.068 1.824.033.597.168 1.26.202 1.89.017.202.05.401.1.598.102.397.17.829.304 1.193.169.432.371.863.573 1.294.148.306.329.595.54.862.116.145.218.3.303.465.038.07.097.128.169.166.13.065.255.143.37.232.15.105.324.173.506.199.224.033.451.033.675 0 .106-.001.2-.067.236-.166.087-.11.155-.233.202-.365.05-.274.084-.551.1-.83a1.898 1.898 0 01.102-.63c.11-.32.157-.658.135-.994-.011-.18.012-.36.067-.531.073-.202.096-.418.068-.63.067-.332.033-.664.067-.995 0-.181.035-.361.101-.53.1-.277.135-.572.101-.863a5.733 5.733 0 01.135-1.691c.195-.787.341-1.584.438-2.389 0-.066.034-.166.034-.232.034-.166.034-.365.067-.53.034-.166.034-.398.068-.597a7.78 7.78 0 00.168-1.758c.006-.179.029-.357.068-.531.067-.398.135-.763.168-1.16.034-.399.034-.764.034-1.129-.074-.702-.187-1.4-.337-2.09zm5.057 4.577l-.034-.034a.105.105 0 010-.099c.07-.271.103-.55.102-.83 0-.235.034-.47.1-.696.085-.38.22-.749.405-1.094.065-.123.1-.26.101-.398a.767.767 0 01.067-.398 3.62 3.62 0 00.237-.863.151.151 0 01.134-.1c.04.01.077.034.102.067.033.034.067.1.1.133.082.16.15.326.203.497.048.23.082.463.101.697a3.442 3.442 0 01-.573 1.824c-.27.365-.506.763-.776 1.128a.79.79 0 01-.168.166h-.1zm4.08 13.631a1.285 1.285 0 01-.304-.298.903.903 0 00-.236-.266 2.817 2.817 0 01-.573-.829c-.202-.398-.303-.862-.472-1.26a1.543 1.543 0 01-.135-.564.957.957 0 00-.067-.298 43.769 43.769 0 01-.573-1.99c-.067-.227-.1-.461-.101-.697a1.65 1.65 0 00-.068-.398c-.067-.232-.1-.464-.168-.697-.07-.282-.16-.56-.27-.829a9.167 9.167 0 01-.438-1.36 5.44 5.44 0 00-.54-1.625.294.294 0 01.034-.331c.236-.299.438-.598.708-.896.236-.232.438-.464.64-.697.196-.205.355-.44.473-.696.067-.166.168-.332.236-.498.064-.148.11-.304.135-.464.033-.166.1-.299.135-.464a.946.946 0 00.067-.299c.028-.22.04-.442.034-.663 0-.266-.068-.564-.068-.83a4.687 4.687 0 00-.404-1.492 1.988 1.988 0 00-.472-.696.704.704 0 00-.203-.133 1.793 1.793 0 00-.843-.1.582.582 0 01-.236.034.63.63 0 00-.505.298c-.27.332-.337.763-.54 1.128-.033.298-.1.63-.135.929-.033.165-.033.364-.067.53-.135.664-.202 1.36-.404 2.023v.067c-.068.331-.102.663-.17.995a9.98 9.98 0 00-.168 1.061c-.1.73-.236 1.492-.337 2.222a26.03 26.03 0 01-.236 1.592c-.1.697-.27 1.393-.404 2.09-.101.53-.169 1.06-.27 1.592-.067.398-.101.796-.135 1.16.001.39-.032.778-.101 1.161a.675.675 0 00.101.497c.16.248.241.537.236.83a.949.949 0 00.067.298c.135.299.236.63.371.929.092.22.205.43.337.63.14.108.287.207.439.299l.033.033a.562.562 0 00.405.066c.125-.004.25.007.37.033a.389.389 0 00.406-.398 2.796 2.796 0 00-.034-.53c-.067-.266-.101-.53-.169-.797a5.685 5.685 0 01-.169-1.293 5.613 5.613 0 01-.033-1.492c.006-.479.052-.956.135-1.427v-.166c.003-.156.026-.313.067-.464.028-.175.04-.353.034-.53 0-.233.034-.465.034-.697l.033-.033a.067.067 0 01.067.033c.034.1.102.232.136.331.202.93.404 1.858.64 2.753.188.763.447 1.507.775 2.222.302.65.712 1.244 1.214 1.758.169.2.405.332.573.531.034.033.101.066.135.1.135.066.27.165.405.232.07.042.156.055.236.033a.63.63 0 01.236-.067c.165-.02.3-.139.337-.298.168-.464.202-.365-.101-.796.033-.032-.068-.099-.135-.132zm11.327-15.555c.068-.365.135-.763.236-1.128.084-.283.151-.571.203-.862.072-.408.185-.808.337-1.194a.423.423 0 01.606-.331l.776.198c.286.052.58-.02.81-.198a.176.176 0 00.066-.1.268.268 0 00.034-.232.865.865 0 00-.067-.166.914.914 0 00-.573-.332l-.708-.099c-.135-.033-.27-.033-.439-.066a1.736 1.736 0 00-.707-.2s-.17-.165-.237-.098a.491.491 0 00-.134.298c0 .1-.776 2.355-.776 2.487 0 .133-.337 1.526-.37 1.659a14.798 14.798 0 00-.506 1.824v.066c-.119.21-.254.41-.405.597a.268.268 0 00-.034.232c.034.067.068.1.101.166.07.096.095.217.068.332-.028.164-.04.331-.034.498-.067.53-.169 1.06-.169 1.226a15.479 15.479 0 00-.1 3.085v.066c.134 1.161-.135 2.985.134 3.815a.033.033 0 01-.034.033.347.347 0 00-.067.431c.067.199.135.365.203.564a.73.73 0 01.1.464c.014.162.06.32.136.465.067.132.168.265.236.397.102.2.268.364.472.465.126.07.24.159.337.265.064.056.15.08.236.066.337-.133.708-.232.843-.596a.456.456 0 01.1-.133.907.907 0 01.473-.233 1.693 1.693 0 001.045-.563c.1-.067.168-.166.27-.233.128-.093.242-.205.336-.331a.656.656 0 00.17-.498.333.333 0 00-.237-.298.359.359 0 01-.168-.066l-.91-.299c-.338-.133-.675-.033-1.012-.133a.303.303 0 00-.236.033 5.46 5.46 0 01-.708.166c-.034 0-.101 0-.101-.033a1.675 1.675 0 01-.202-.663c0-.266-.068-.53-.068-.763 0-.331-.034-.663-.067-1.028v-.299a5.33 5.33 0 00-.034-.73c-.067-.43 0-.862-.034-1.326.028-.276.04-.552.034-.83-.034-.298.067-.596.034-.895-.022-.424.023-.85.135-1.26.028-.1.133-.16.236-.133.092.028.182.061.27.1.104.074.249.06.337-.033.211-.196.485-.313.775-.332a.341.341 0 00.236-.066.446.446 0 01.404-.1.126.126 0 00.102-.033c.1-.1.202-.166.303-.265a.41.41 0 00.1-.398 2.282 2.282 0 00-.336-.63.569.569 0 00-.337-.233c-.405-.066-.843-.166-1.248-.232a.63.63 0 01-.236-.066.22.22 0 01-.135-.166c-.016-.28.018-.56.102-.83 0-.066.033-.166.033-.265zm7.047 1.393a.374.374 0 01-.169.033.12.12 0 01-.034-.1v-.165c.056-.206.079-.418.068-.63v-.133c.11-.456.156-.925.135-1.393a1.54 1.54 0 01.134-.564.23.23 0 01.203-.132c.168 0 .337.033.472.033a.294.294 0 00.303-.166.275.275 0 01.303-.133.34.34 0 01.304.133c.146.19.218.425.202.663 0 .1-.034.2-.034.299-.067.398-.202.796-.303 1.194-.04.075-.074.152-.101.232a.301.301 0 01-.202.199c-.153.064-.3.142-.439.232a.403.403 0 01-.337.033.308.308 0 00-.27.133 1.534 1.534 0 00-.235.232zm8.327 13.73a.913.913 0 00-.472-.463c-.101-.033-.169-.1-.27-.133a1.213 1.213 0 01-.472-.332 4.267 4.267 0 00-.573-.53 5.227 5.227 0 01-1.045-1.062.677.677 0 00-.202-.232.769.769 0 01-.169-.166 13.241 13.241 0 01-.91-1.459 6.69 6.69 0 00-.337-.697 4.84 4.84 0 01-.439-1.16c-.033-.1-.033-.2-.067-.299-.11-.236-.2-.48-.27-.73a6.501 6.501 0 00-.337-.696 6.56 6.56 0 00-.472-.83 4.65 4.65 0 01-.303-.563 3.307 3.307 0 00-.27-.464 2.832 2.832 0 00-.236-.332 6.404 6.404 0 00-.505-.796c-.034-.066-.102-.133-.135-.2-.101-.264-.27-.497-.371-.729a.157.157 0 01.033-.166c.187-.086.367-.186.54-.298a.886.886 0 01.303-.166.473.473 0 00.27-.299 8.4 8.4 0 01.438-.961.3.3 0 00.034-.166c.033-.299.135-.597.135-.862.015-.351.083-.698.202-1.029.096-.3.142-.614.135-.928.015-.32-.08-.636-.27-.896a.29.29 0 01-.033-.166.701.701 0 00-.135-.199 3.557 3.557 0 00-1.282-.497 5.224 5.224 0 01-.708-.1.774.774 0 00-.809.299c-.135.133-.135.166-.067.298a.406.406 0 01.034.431 10.515 10.515 0 00-.607 1.725c-.067.232-.101.498-.169.763l-.1.895c-.034.432-.102.863-.136 1.294-.135.862-.303 1.692-.404 2.587-.085.47-.12.949-.102 1.426 0 .2-.033.398-.033.597a.89.89 0 000 .299c.04.297.062.596.067.895.034.299.101.63.135.929.034.298.101.663.169.995.1.497.202.962.27 1.459.067.431.134.862.168 1.293l.101 1.758a.488.488 0 00.068.299c.147.284.26.585.337.895.013.057.05.105.1.133a.771.771 0 01.338.232.428.428 0 00.202.133c.147.11.346.122.506.033a.61.61 0 00.236-.166.285.285 0 00.1-.199 2.44 2.44 0 00-.134-.862 4.162 4.162 0 01-.236-.929 12.52 12.52 0 00-.236-.929 3.093 3.093 0 01-.169-1.094 1.813 1.813 0 00-.067-.597l-.101-.597c-.068-.63-.135-1.294-.203-1.924-.033-.298-.033-.63-.067-.929a9.183 9.183 0 010-.961c-.034-.332.101-.664-.034-.995v-.066c.068-.25.068-.513 0-.763.006-.234.029-.467.068-.697.006-.08.03-.16.067-.232a.115.115 0 01.101-.066c.035.006.07.017.101.033.191.326.35.671.472 1.028.144.37.268.746.371 1.128.202.697.438 1.393.674 2.09.198.604.446 1.192.742 1.757.45.822.945 1.62 1.483 2.388.495.696 1.048 1.35 1.652 1.957.439.431.877.863 1.315 1.327.142.14.301.262.472.365a.763.763 0 00.472.1 5.32 5.32 0 00.708-.133.23.23 0 00.169-.1.933.933 0 00.169-.995zm-53.44-.729a1.969 1.969 0 001.18-.564.854.854 0 00.27-.43.604.604 0 01.067-.233.231.231 0 00-.135-.298 6.023 6.023 0 00-1.281-.498 3.96 3.96 0 00-1.247-.232c-.472 0-.978.033-1.45.066a1.336 1.336 0 00-.607.133c-.319.13-.645.241-.978.332-.37.133-.708.265-1.079.398a.172.172 0 01-.236-.133 1.733 1.733 0 01-.1-.398c0-.199.033-.398.033-.597v-.465a.924.924 0 01-.067-.729.542.542 0 000-.232 3.42 3.42 0 01.033-.83c.068-.397.169-.828.203-1.227.114-.401.193-.812.236-1.226a.246.246 0 01.034-.166c.113-.254.193-.522.236-.796.067-.266.168-.531.236-.797a.298.298 0 01.337-.165c.1.033.236.066.337.099.325.114.666.181 1.01.2.368.01.73-.082 1.046-.266a.266.266 0 00.101-.299.854.854 0 01-.101-.265.775.775 0 00-.236-.465 1.39 1.39 0 00-.775-.43 2.726 2.726 0 00-.708-.166 1.292 1.292 0 01-.337-.1.193.193 0 01-.068-.166c.101-.63.203-1.26.337-1.857.05-.292.153-.573.304-.83a.853.853 0 00.1-.265c.244-.724.425-1.467.54-2.222.068-.265.101-.497.169-.762.035-.151.092-.297.168-.432.166-.277.313-.565.439-.862a.647.647 0 01.303-.365.605.605 0 00.27-.43 2.12 2.12 0 000-.465.698.698 0 00-.371-.597.259.259 0 00-.169-.067 2.36 2.36 0 00-1.079.034 4.606 4.606 0 00-1.483.663c-.337.232-.64.464-.978.697-.37.247-.72.525-1.045.829-.135.132-.303.265-.438.398l-.607.497a.846.846 0 00-.337.73c0 .1-.034.232-.034.365a.554.554 0 00.101.331c.107.146.262.251.439.299a.546.546 0 00.37-.166c.229-.136.415-.331.54-.564.09-.125.17-.258.236-.398.084-.181.211-.34.37-.464.439-.299.776-.697 1.282-.929a.471.471 0 00.135-.1c.135-.099.303-.198.438-.298.068-.033.203 0 .203.066.005.178-.006.356-.034.531-.101.299-.169.597-.27.896-.215.62-.395 1.25-.54 1.89-.033.1-.033.232-.067.332a3.935 3.935 0 01-.27.895c-.168.431-.303.896-.438 1.36-.135.464-.303.862-.404 1.293 0 .033-.034.067-.034.1a.223.223 0 01-.169.133c-.28.028-.561.039-.842.033h-.641a1.004 1.004 0 00-.303.066c-.27.1-.304.166-.236.431.035.15.092.296.168.431a.472.472 0 00.405.299c.155.033.316.033.472 0 .2-.034.406-.034.607 0a.18.18 0 01.135.166c-.034.166-.101.331-.135.53a4.604 4.604 0 00-.169 1.16 1.161 1.161 0 01-.067.333l-.203.796c-.067.298-.067.597-.134.862-.079.528-.124 1.06-.135 1.592-.034.63-.034 1.26-.068 1.89 0 .28-.034.558-.1.83-.065.273-.11.55-.136.829-.046.32.013.645.169.929.245.518.74.88 1.315.962a.476.476 0 00.303 0 4.561 4.561 0 011.483-.332c.261-.027.514-.106.742-.232.094-.068.196-.124.303-.166.197-.092.4-.17.607-.232l.776-.1c.277-.03.55-.097.809-.199h.067a.921.921 0 00.64-.2h.237v.001zm34.59.465l-.1-.1c-.121-.09-.234-.19-.337-.298a2.954 2.954 0 01-.203-.332.033.033 0 00-.034-.033 15.316 15.316 0 00-.471-.83c-.034-.065-.034-.099-.068-.165-.166-.72-.279-1.452-.337-2.189 0-.299-.034-.597-.034-.896.006-.156.029-.312.068-.464.072-.228.128-.46.168-.696.03-.213.074-.424.135-.63a.724.724 0 00-.033-.531.267.267 0 01.135-.298c.067-.034.1-.034.168-.067.438-.299.203-.895.169-1.028a.75.75 0 00-.607-.564c-.438 0-1.214-.166-1.787.63a.157.157 0 00-.034.166.982.982 0 01-.1.863c-.036.11.005.23.1.298.034.033.101.066.135.1.083.056.174.101.27.132.087.045.14.136.135.232 0 .166-.337.929-.337 1.095a5.91 5.91 0 00-.101.763c0 .132-.068.663-.27.364-.2-.27-.347-.573-.438-.895a16.511 16.511 0 01-.607-3.118c-.067-.398-.034-.829-.101-1.227a8.78 8.78 0 01-.034-.928 9.956 9.956 0 01.775-3.715c.071-.138.128-.282.17-.431.066-.199.168-.398.235-.597.053-.171.12-.338.202-.498a.814.814 0 01.304-.364 3.28 3.28 0 00.607-.564c.4-.597.718-1.244.944-1.924.072-.19.095-.396.067-.597-.337-.464-1.011-.033-1.112.066-.405.365-.91.597-1.282.962a3.83 3.83 0 00-.64.862c-.135.218-.281.428-.439.63a7.926 7.926 0 00-.438.697c-.202.365-.37.763-.54 1.128-.11.26-.233.515-.37.763a8.016 8.016 0 00-.641 1.459 11.362 11.362 0 00-.54 2.354c-.033.299-.1.63-.134.93-.044.34-.056.684-.034 1.028v.464c-.019.215.016.431.101.63.058.148.08.306.068.464a2.45 2.45 0 00.067.697c.03.119.04.242.034.365 0 .181.035.36.1.53a.957.957 0 01.068.299c.061.573.245 1.127.54 1.625.247.425.46.87.64 1.327.235.412.494.81.775 1.194.305.443.668.844 1.08 1.193.269.266.606.398.876.63.458.19.952.28 1.45.266h.775a.803.803 0 00.843-.53c0-.067.067-.233.067-.3v-.032c0-.034.034-.1.034-.133v-.066c-.068-.1-.068-.133-.102-.166zm-29.803-13.83a.18.18 0 01.135-.167.12.12 0 01.068-.033c.439-.118.907.04 1.18.398.274.44.468.922.573 1.426.121.556.167 1.125.135 1.692v.398c-.013.31.01.622.067.928.073.305.096.618.067.93v.662c0 .365-.067.73-.1 1.128-.068.53-.237 1.46-.27 1.658-.034.2-.439.663-.573-.166a16.55 16.55 0 00-.573-2.122 3.262 3.262 0 01-.135-.796c-.034-.365-.068-.697-.101-1.062a13.827 13.827 0 01-.101-.862 4.634 4.634 0 00-.203-1.526 1.582 1.582 0 01-.034-.398c.017-.31.017-.619 0-.928-.005-.201-.028-.4-.067-.598a1.083 1.083 0 01-.068-.563zm.236-4.744a.627.627 0 01.101-.265.373.373 0 01.506-.166c.106.018.208.052.304.1a.22.22 0 01.134.166c.057.252.045.515-.033.762a5.574 5.574 0 01-.877 1.725.178.178 0 01-.1.066h-.099a.033.033 0 01-.033-.033.294.294 0 01-.034-.166v-.696c.016-.5.06-.998.135-1.493h-.004zm-2.76 14.713a4.11 4.11 0 00.64 1.758c.076.17.25.275.438.265.169-.033.236.133.371.2a.36.36 0 01.135.298 1.972 1.972 0 01-.337.829.148.148 0 000 .166c.203.365.776.464.91.498.18.021.364.01.54-.034.168-.066.337-.1.505-.166.17-.078.353-.124.54-.133a.608.608 0 00.337-.132c.404-.298 1.146-.497 1.416-.929.202-.364.472-.763.64-1.127.128-.437.23-.88.304-1.327 0-.133.034-.232.034-.365-.005-.26.04-.52.134-.763.089-.257.145-.525.169-.796.039-.22.027-.447-.034-.663a3.568 3.568 0 01-.067-.597c0-.236-.035-.47-.101-.697a1.214 1.214 0 01-.068-.597c.068-.597.136-1.227.203-1.824a.89.89 0 000-.299 5.102 5.102 0 00-.135-.696 1.178 1.178 0 00-.236-.597 1.036 1.036 0 01-.169-.332 1.217 1.217 0 00-.168-.364 1.246 1.246 0 01-.169-.498 3.066 3.066 0 00-.674-1.16 2.651 2.651 0 00-1.18-.598 4.48 4.48 0 01-.944-.298c-.034 0-.034-.066-.034-.1.11-.106.234-.196.371-.265a.735.735 0 00.371-.464c.05-.129.083-.262.101-.398.032-.199.1-.39.202-.564.169-.266.304-.564.472-.83.18-.242.285-.53.304-.829 0-.166.1-.597-.034-.762a1.723 1.723 0 00-.81-.531 3.649 3.649 0 00-1.28-.232c-.17.033-.337.033-.473.066-.235.033-.235.066-.202.298a.541.541 0 010 .233c-.04.17-.097.337-.168.497a6.322 6.322 0 00-.371 1.128c-.068.265-.135.497-.203.73a23.679 23.679 0 00-.708 3.416c-.067.464-.135.895-.202 1.326-.067.431-.135.83-.202 1.227-.068.399-.068.83-.135 1.227a3.58 3.58 0 00-.067.598c0 .331-.034.63-.034.928-.05.497-.05.996 0 1.493.034.43.034.863 0 1.293-.032.5-.01 1 .067 1.493zm-32.433-.132a2.45 2.45 0 01-.135-.531 8.083 8.083 0 00-.236-.962 16.113 16.113 0 00-.371-1.194 6.948 6.948 0 00-.337-1.194 1.464 1.464 0 00-.034-.166 6.342 6.342 0 00-.506-1.326c-.168-.299-.37-.63-.539-.93a8.936 8.936 0 01-.81-1.923c-.134-.43-.269-.862-.37-1.293-.169-.664-.337-1.294-.506-1.957-.067-.332-.1-.697-.168-1.061-.034-.2-.034-.398-.068-.597a11.552 11.552 0 01-.067-1.526c.067-.464.101-.895.135-1.36 0-.1.067-.232.067-.331.076-.25.132-.505.169-.763a.245.245 0 01.034-.166c.21-.574.469-1.128.775-1.658.067-.1.135-.166.169-.233a.274.274 0 01.27-.132.256.256 0 00.168-.034.113.113 0 00.067-.099.3.3 0 00-.1-.265c-.068-.034-.17-.034-.237-.067a.44.44 0 00-.404.034l-.203.099-.607.298-.505.598a.717.717 0 00-.101.165c-.29.435-.63.836-1.012 1.194-.11.115-.21.237-.303.365a3.81 3.81 0 01-.476.643.697.697 0 00-.135.2c-.208.423-.444.833-.707 1.227a.704.704 0 00-.135.398c-.014.162-.06.32-.135.464-.07.115-.127.237-.17.365a.949.949 0 00-.066.299c0 .166.067.298.067.464 0 .166-.101.298-.101.464v.365a.98.98 0 000 .697v.132c-.011.202.012.403.067.597.095.38.14.77.135 1.161-.001.526.067 1.05.203 1.559.074.292.164.58.27.862.08.247.125.504.134.763-.024.294.022.59.135.862a.55.55 0 01.034.233.943.943 0 00.168.663c.027.076.05.153.068.232.05.271.153.53.303.763.134.169.236.36.304.564.06.103.14.193.235.265a.289.289 0 01.169.232.695.695 0 00.371.498c.136.084.252.197.337.331.093.128.194.25.303.365.11.091.211.191.304.299l.202.199a.59.59 0 00.607.165h.067a.19.19 0 01.203.067c.07.095.149.184.236.265a.97.97 0 01.37.53c.17.432.304.863.439 1.294a.984.984 0 00.169.431c.177.219.283.484.303.763.034.199.101.398.135.564 0 .203.035.405.1.597.035.153.035.311 0 .464-.058.275-.149.542-.269.796-.216.47-.5.905-.843 1.294a1.464 1.464 0 01-.472.431 1.64 1.64 0 00-.607.564 2.366 2.366 0 01-1.314.796c-.2.05-.403.082-.607.1a.535.535 0 00-.405.298c-.077.179-.122.37-.135.563.01.04.034.076.067.1a.513.513 0 00.371.199c.147.001.294-.01.439-.033.236.067.54-.1.843-.232a.068.068 0 00.067-.033.769.769 0 00.337-.233c.116-.118.24-.229.37-.331a5.71 5.71 0 00.642-.63c.27-.299.539-.597.775-.896.285-.338.534-.705.741-1.094.17-.265.304-.564.472-.83a6.631 6.631 0 00.742-2.122 9.641 9.641 0 00-.1-2.952c.168 0 .168-.033.134-.033M138.49 33.59c-.202 1.26-.405 2.487-.708 3.714-.034.066-.034.166-.067.232a15.52 15.52 0 01-.843 2.19c-.169.33-.304.696-.472 1.06a.729.729 0 01-.101.233 5.502 5.502 0 01-.877 1.061c-.034.034-.101.034-.101-.033a1.247 1.247 0 01-.101-.332 5.423 5.423 0 00-.135-1.06c-.034-.133 0-.266-.034-.432a4.345 4.345 0 00-.067-.663.45.45 0 010-.299c.056-.171.078-.35.067-.53 0-.332-.033-.664-.033-1.029.044-.252.055-.508.033-.762 0-.133-.033-.266-.033-.431a2.29 2.29 0 01.033-.83c.034-.1.034-.199.068-.298a3.3 3.3 0 00.303-1.26c.068-.531.034-1.029.101-1.56v-.165a2.296 2.296 0 01.068-.83c.029-.119.04-.242.033-.364a.912.912 0 01.034-.299 1.84 1.84 0 00.101-.597c.018-.437.086-.87.202-1.293a.557.557 0 00.034-.232.779.779 0 01.067-.398 1.41 1.41 0 01.371-.233.181.181 0 01.101-.066h.172c.177.11.346.233.506.365a.98.98 0 01.168.232c.063.107.12.218.169.332.137.225.261.458.371.696.089.292.145.592.169.896.033.232.067.43.101.663.029.504.108 1.004.236 1.492.025.143.037.287.033.432a.53.53 0 01.034.398h-.003zm1.42-1.792c-.034-.298-.102-.597-.135-.895a3.938 3.938 0 00-.574-1.625c-.236-.365-.505-.73-.741-1.095a.403.403 0 00-.169-.166 9.879 9.879 0 00-.977-.63 21.713 21.713 0 01-.877-.398 1.414 1.414 0 00-.539-.1h-.135c-.371 0-.371-.032-.405.332a.912.912 0 01-.034.299c-.067.331-.168.663-.236.995l-.404 1.99c-.135.762-.27 1.525-.405 2.321a16.16 16.16 0 00-.303 2.189c0 .133-.034.232-.034.365-.136.711-.203 1.433-.202 2.156a1.36 1.36 0 01-.034.365c-.067.498-.101.995-.169 1.493-.033.331-.033.663-.067 1.028v.829c0 .365 0 .796.034 1.26.021.4.112.792.269 1.161.068.133.101.265.169.398.085.14.12.303.101.465a.242.242 0 00.034.166.15.15 0 00.167.132h.001c.27-.033.54-.033.81-.066.357-.015.684-.201.876-.498.101-.166.236-.331.337-.497.187-.333.426-.635.708-.895.198-.199.368-.422.506-.664.202-.365.337-.73.506-1.094.065-.15.144-.295.236-.431.254-.347.459-.726.606-1.128a14.25 14.25 0 00.81-2.654c.033-.298.135-.596.168-.895.068-.431.101-.83.135-1.26a15.36 15.36 0 00.034-2.156 7.073 7.073 0 00-.067-.797zm-8.463 11.609a2.73 2.73 0 00-.202-.697.77.77 0 01-.067-.298 4.872 4.872 0 01.033-.995 4.547 4.547 0 00-.135-1.36 2.92 2.92 0 01-.067-.763 4.163 4.163 0 00-.068-1.293c-.033-.432-.067-.83-.067-1.26a5.561 5.561 0 00-.101-1.294v-.166c0-.431-.034-.862 0-1.327v-.464a.96.96 0 00-.067-.299 1.53 1.53 0 01-.135-.53v-.332a1.56 1.56 0 000-.398v-1.824c.025-.181.07-.36.135-.53a.95.95 0 00.033-.531 1.197 1.197 0 01-.033-.597 6.977 6.977 0 00-.068-.83.348.348 0 00-.135-.198.126.126 0 00-.101-.034c-.158.08-.306.18-.438.299a.301.301 0 00-.135.265c-.034.232-.034.431-.067.663-.023.222-.011.445.033.664.091.47.114.95.068 1.426l-.101 1.293c-.04.32-.062.64-.068.962 0 .365.034.763.034 1.128a.557.557 0 00.034.232c.057.317.079.64.067.962 0 .564-.034 1.16-.067 1.724-.006.321.005.642.033.962v.299c0 .232-.033.43-.033.663 0 .232-.034.431-.034.663 0 .033-.034.066-.034.1a.149.149 0 01-.168.033c-.034-.033-.068-.033-.101-.067-.203-.364-.371-.696-.573-1.06a2.22 2.22 0 01-.27-1.03 2.765 2.765 0 010-.53 2.83 2.83 0 00-.101-.928 9.053 9.053 0 00-.405-1.26 2.293 2.293 0 00-.101-.266 8.314 8.314 0 00-.674-1.725c-.472-.895-.91-1.824-1.349-2.753-.135-.298-.236-.63-.371-.961a.56.56 0 01.034-.564.122.122 0 00.034-.1.718.718 0 00-.068-.464.314.314 0 00-.236-.166 1.805 1.805 0 01-.64-.43c-.067-.067-.169-.067-.236.066a3.175 3.175 0 00-.472 1.094 2.357 2.357 0 01-.135.464 3.584 3.584 0 00-.169.564c-.135.564-.303 1.128-.438 1.691-.202.83-.438 1.659-.64 2.488-.136.497-.203.962-.304 1.459a10.792 10.792 0 00-.337 2.554v.133c-.067.364-.067.696-.135 1.06-.084.772-.118 1.547-.101 2.322 0 .432.135.83.135 1.228.006.124.029.246.067.364 0 .034.034.067.034.1a.98.98 0 00.135.332c.187.244.402.467.641.663.15.066.321.066.472 0 .067-.067.168-.133.236-.2a.456.456 0 00.168-.297c.107-.446.129-.907.068-1.36-.034-.133-.034-.233-.068-.365a4.016 4.016 0 01-.067-.896v-1.048c-.022-1.03.022-2.06.135-3.085.056-.294.078-.595.067-.895.006-.178.029-.356.068-.53.133-.558.235-1.123.303-1.692.034-.232.101-.431.135-.63a3 3 0 01.135-.763c.061-.195.106-.395.135-.597.013-.162.059-.32.135-.465.033-.066.101-.132.135-.099.033.033.067.033.101.067.058.08.103.17.134.265.374.905.679 1.836.911 2.786.135.53.236 1.061.337 1.592.101.53.236 1.127.405 1.691a8.51 8.51 0 00.708 1.824c.235.465.539.896.809 1.36.337.564.64 1.094.977 1.658a.438.438 0 01.068.299.36.36 0 00.236.331c.082.03.126.117.101.2a.459.459 0 00.033.298c.034.066.101.133.135.199.05.208.169.395.337.53.135.133.338.299.506.431l.304.2a.311.311 0 00.337 0 .357.357 0 01.168-.067.589.589 0 00.304-.331.284.284 0 000-.232 2.047 2.047 0 01-.27-.763l-.001-.012zM118.029 31.38a4.32 4.32 0 000 .663c0 .232-.034.63-.034.862a.213.213 0 01-.168.166h-.641c-.033 0-.135-.033-.101-.1.034-.066.034-.1.034-.132.135-.398.303-.995.438-1.393.126-.379.216-.767.27-1.161 0-.067.033-.1.033-.166l.034-.034c.019 0 .034.015.034.034.028.09.062.179.101.265v.464c.035.176.035.356 0 .532zm1.551 1.724a.033.033 0 01-.034-.033.687.687 0 01-.303-.63v-.166c-.034-.697-.034-1.393-.067-2.09a4.142 4.142 0 01.067-1.127.912.912 0 00.034-.299 5.623 5.623 0 00-.101-1.493 1.627 1.627 0 01.067-.895c.034-.1.067-.232.101-.331a.242.242 0 00-.034-.166c-.067-.067-.168-.133-.236-.2a.314.314 0 00-.337-.033c-.245.139-.505.25-.775.332a.242.242 0 00-.202.299.378.378 0 01-.101.265.836.836 0 00-.203.498.558.558 0 01-.101.198.379.379 0 00-.101.266.993.993 0 01-.067.331c-.236.763-.472 1.56-.742 2.355-.269.796-.505 1.327-.741 2.123l-.203.497a.408.408 0 01-.168.166c-.203.033-.405.1-.607.133a.307.307 0 00-.202.398c.033.033.033.066.067.1.135.132.236.265.371.398a.255.255 0 01.067.265c-.033.066-.033.166-.067.232-.27.929-.202.63-.438 1.592-.068.298-.101.464-.169.763a5.323 5.323 0 00-.236.995c0 .1-.034.199-.034.298-.033.2-.067.597-.101.929a.325.325 0 00.068.232l.135.133c.178.092.338.216.472.364a.37.37 0 00.505.033c.119-.127.255-.239.405-.331a.226.226 0 00.135-.199c.06-.127.105-.26.135-.398.041-.149.097-.294.168-.431a4.09 4.09 0 00.101-.929 5.71 5.71 0 01.439-1.625c.111-.369.189-.746.236-1.127a.284.284 0 01.337-.266c.25 0 .5.034.742.1.134.04.228.16.236.298a11 11 0 01.033 1.824 1.07 1.07 0 000 .464.88.88 0 010 .299c-.022.299-.011.599.034.896.034.364.034.729.067 1.06-.005.178.006.356.034.531.068.517.102 1.038.101 1.56.006.32-.006.64-.034.96-.019.347.089.688.304.963a.37.37 0 00.438.133.275.275 0 00.169-.166c.05-.308.084-.618.101-.93a6.733 6.733 0 00-.034-1.425 3.95 3.95 0 01.034-1.26c.062-.396.073-.797.033-1.194 0-.53-.067-2.521-.101-2.886a2.428 2.428 0 01.034-.696.975.975 0 01.135-.332c.135-.2.303-.398.438-.564a.581.581 0 00.101-.398.894.894 0 00-.405-.663zm-3.607 9.652a4.98 4.98 0 00-1.652-.73 11.262 11.262 0 00-1.518-.365 2.688 2.688 0 00-1.348.133c-.371.133-.674-.034-.539-.431.106-.298.129-.62.067-.93a.647.647 0 010-.364c.061-.204.073-.42.034-.63a15.762 15.762 0 01-.101-1.791c.033-.332-.034-1.426 0-1.659.033-.364.033-.696.033-1.06 0-.3.034-1.394 0-1.66a1.311 1.311 0 010-.364 2.53 2.53 0 00.068-.497c.01-.511.055-1.021.135-1.526.067-.365.067-.995.101-1.393 0-.2.033-.398.033-.597 0-.2.068-.929.101-.995.135-.431.135-.896.304-1.327a6.88 6.88 0 01.404-1.426c.039-.107.061-.218.068-.331-.005-.402.04-.803.135-1.194.096-.369.142-.748.135-1.128a.579.579 0 00-.54-.564h-.371a1.942 1.942 0 00-.438.034c-.071.16-.128.326-.169.497a9.087 9.087 0 01-.404 1.36c-.169.464-.54 1.592-.573 1.691-.101.332-.169.697-.27 1.028-.169.564-.337 1.095-.472 1.659a46.093 46.093 0 00-.472 2.09c-.203.771-.338 1.56-.405 2.354 0 .066-.033.166-.033.232a11.454 11.454 0 00-.169 1.858 8.397 8.397 0 01-.101 1.591 9.73 9.73 0 00-.135 2.422c0 .132.034.232.034.364.135.63.236 1.294.404 1.924.101.432.27.83.371 1.26a6.94 6.94 0 00.708 1.726c.136.243.334.45.573.596a.541.541 0 00.405.133h.371a.592.592 0 00.607-.331c.12-.212.31-.375.539-.465a4.108 4.108 0 011.787-.033c.225.006.451-.005.674-.033.337-.033.675.1 1.248-.1.298-.156.508-.436.573-.762a.254.254 0 00-.034-.166c-.033.032-.101-.034-.168-.1z"/>
</svg>