<svg xmlns="http://www.w3.org/2000/svg" fill="none" viewBox="0 0 155 40">
    <defs/>
    <path fill="#fff" d="M154.884.175H.174v39.388h154.71V.175z"/>
    <path fill="#56585A" d="M155 39.68H0V0h155v39.68zM.578 39.096h153.844V.584H.578v38.512z"/>
    <path fill="#56585A" d="M3.586 3.618V35.77H40.08V3.618H3.586zm34.701 21.649c-.578.233-.925.175-2.024.525-1.62.467-2.718 2.392-6.073 2.217-.116 0-.173.059-.173.175 0 .175-.058.234-.174.35-.173.176-2.776.934-4.28 1.05-2.776.176-5.61-.816-6.362-.991-2.14-.409-4.453-.233-7.056-5.369 0-.058-.057-.058-.115-.058-2.776-.933-2.719-2.567-4.743-3.793-.231-.117-.925-.175-1.62-.583-.057 0-.057-.059-.057-.117-.058-.233-.116-.934.578-2.16.636-1.166 1.157-1.633 1.388-1.808.058-.058.116-.058.174 0 1.214.875.058 1.692.347 2.626.29 1.05 1.735 1.984 3.18 2.8.059.06.117.06.232.117 0-.408.058-.7.116-.758.116-.117.578.467.578.467l.174-.175c.115 0 .694.933.752.992.057.058.115-.292.173-.292.058-.058.405.467.52.408.059-.058-.462-.817-.288-.817.115 0 .346.117.578.292.173.117.347-.116.231-.233-.405-.584-.925-1.284.174-.759.752.409 1.503 1.05 2.082 1.692.115.117.289.059.289-.116-.116-1.226-.983-2.918-2.718-4.027-1.909-1.167-3.528-2.742-4.685-3.91l-.405-.408-.52-.467c-.405-.35-.579-.408-.868-.35-.116.059-.231.059-.347.059-.52.058-.983 0-1.157-.234-.289-.408 1.504-.292 1.62-1.108.115-1.11-.868-1.926-.579-2.16.116-.058.405.117.694.409 0 0 .058.058.116.058s.174.059.231.117c.116.058.232.233.347.35l.058.058c.116.059.232.117.29.234.115.175.23.642.115 1.167.058.058.116.058.116.117l.52.408.174.175c.115.117.289 0 .289-.117 0-.35.116-.466.173-.408.058.058.29.408.521.7.116.175.347.059.29-.117-.059-.175.115-.291.288-.175.405.292.637.7.926 1.343.115-.175.058-.35.058-.467-.058-.175.173-.292.289-.175.347.291.694.758.694.758s.058-.058.058-.233c0-.175.115-.233.231-.175.29.175.52.408.81.642.115.116.347 0 .289-.175-.058-.35-.116-.642-.116-.876 0-.116.174-.175.29-.116.404.291 1.156 1.167 2.37 2.8.405.584.926 1.168 1.215 1.518v.058c.463 1.05 1.157 1.692 1.735 1.576.52-.117.81-.7.983-1.517.116-.409.174-.7.174-.992v-.584c0-.058 0-.058-.058-.117-.405-.467-.983-.758-1.561-.758-.579 0-1.1.291-1.389.758-.115.117-.289.059-.289-.116s0-.35-.058-.526c-.057-2.217.116-4.434 1.157-4.493.868-.058 1.793 2.626 2.14 4.377.058.175.058.35.058.525 0-.292.058-.584.058-.817.058-.409.058-.875.289-1.226.463-.583.52-.35.405.117-.058.35.925.817.867 1.342-.058.292 0 .7.29.7-.174-.875.057-.933-.174-1.283-.347-.525-.058-.525.52-.234.405.175.695 1.518 1.1 1.226.404-.292-.984-1.81-.463-1.692.347.058.925.408 1.33.641.116.059.29 0 .231-.175v-.35c0-.116.174-.175.29-.116.057.058.173.175.289.233.115 0 .173 0 .231-.058.116-.059.231-.117.347-.117.058 0 .058 0 .116-.058l.173-.175c.058-.059.058-.117.058-.234-.174-.408-.174-.759-.116-.934 0-.116.116-.175.174-.233l.058-.058c.058-.175.115-.292.173-.409.058-.117.174-.175.232-.175.173-.35.347-.583.462-.583.347.058-.289 1.05.058 1.984.347.875 1.504.116 1.33.525-.058.175-.173.408-.578.467-.116 0-.231.058-.347.058a.523.523 0 00-.405.175l.058.058c.463 1.05-1.215 3.326-3.239 4.61 0 0-.058 0-.058.059-.694.466-2.718 1.633-2.718 4.61v.466c0 .117.116.175.231.117.81-.409 1.62-.934 1.735-1.05.174-.175.52-.525.174 1.4 0 .117.116.233.231.175.637-.408 1.446-.642 1.793-.583.463.116-.231.35-.347 1.283 0 .117.116.234.232.175.462-.291 1.04-.875 1.156-.992.174-.116.347-.058.174.35-.174.41 0 .817.058.876.057 0 .867-.7.983-.7.116 0 .231.35.289.875 0 .117.174.175.29.117.346-.234.809-.409.751 0-.058.35 0 .7 0 .875 0 .117.116.175.174.175.115 0 .23-.058.346-.058 1.1-.059 3.24-.7 4.685-1.343 1.215-.525-.636-2.334 1.041-3.326.058-.058.116-.058.174 0 .231.117.752.759 1.33 2.393.347.875.463 1.517.463 1.809-.116-.117-.116-.058-.174 0z"/>
    <path fill="#E3271E" d="M112.433 22.758c-.694.35-.984.875-.984 1.809 0 .933.463 1.517 1.157 1.517 1.041 0 1.446-.759 1.446-2.334v-1.693h-.058c-.231.409-.867.409-1.561.7zM79.466 22.758c-.694.35-.983.875-.983 1.809 0 .933.463 1.517 1.157 1.517 1.04 0 1.446-.759 1.446-2.334v-1.693h-.058c-.231.409-.868.409-1.562.7zM66.569 22.758c-.694.35-.983.875-.983 1.809 0 .933.462 1.517 1.156 1.517 1.041 0 1.446-.759 1.446-2.334v-1.693h-.058c-.23.409-.867.409-1.561.7z"/>
    <path fill="#E3271E" d="M137.533 3.618v12.838h.058c.752-1.46 2.082-1.926 3.239-1.926 1.909 0 3.644.875 3.644 3.793v10.62h-4.627v-9.336c0-1.168-.289-1.693-1.157-1.693-.809 0-1.157.467-1.157 1.693v9.278h-4.626V3.618H98.899v12.838h.058c.463-1.46 1.619-1.926 2.892-1.926 2.66 0 4.28 1.692 4.28 7.119 0 5.193-1.041 7.703-4.165 7.703-1.677 0-2.602-.7-3.18-2.276h-.058V29h-4.512V3.618H92.19v25.325h-4.627V3.618h-44.07V35.77h107.979V3.618h-13.939zm-82.82 25.675c-3.875 0-5.495-1.692-5.495-4.726h4.049c0 .525.115 1.05.347 1.4.231.292.578.467.983.467.694 0 1.33-.467 1.33-1.167 0-2.51-6.709-.992-6.709-6.36 0-2.451 1.793-4.377 5.552-4.377 3.47 0 5.263 1.459 5.263 4.435h-4.048c0-1.167-.463-1.576-1.215-1.576-.694 0-1.214.409-1.214 1.109 0 2.334 6.709.758 6.709 6.127.058 2.684-2.024 4.668-5.552 4.668zm13.765-.408c-.174-.467-.232-.992-.29-1.576h-.058c-.52 1.226-1.735 1.926-3.123 1.926-2.776 0-3.875-1.692-3.875-4.143 0-2.626.926-3.793 3.875-4.552l1.851-.467c.983-.233 1.388-.7 1.388-1.517 0-.875-.405-1.284-1.214-1.284-.868 0-1.273.409-1.33 1.868h-4.05c0-4.027 3.24-4.727 5.322-4.727 3.239 0 5.494.876 5.494 4.552v6.885c0 1.284.058 2.334.463 3.035h-4.453zm12.897 0c-.174-.467-.231-.992-.29-1.576h-.057c-.52 1.226-1.735 1.926-3.123 1.926-2.776 0-3.875-1.692-3.875-4.143 0-2.626.925-3.793 3.875-4.552l1.85-.467c.984-.233 1.389-.7 1.389-1.517 0-.875-.405-1.284-1.215-1.284-.868 0-1.272.409-1.33 1.868H74.55c0-4.027 3.24-4.727 5.321-4.727 3.239 0 5.495.876 5.495 4.552v6.885c0 1.284.057 2.334.462 3.035h-4.453zm32.966 0c-.173-.467-.231-.992-.289-1.576h-.058c-.52 1.226-1.735 1.926-3.123 1.926-2.776 0-3.875-1.692-3.875-4.143 0-2.626.926-3.793 3.875-4.552l1.851-.467c.983-.233 1.388-.7 1.388-1.517 0-.875-.405-1.284-1.215-1.284-.867 0-1.272.409-1.33 1.868h-4.048c0-4.027 3.239-4.727 5.321-4.727 3.238 0 5.494.876 5.494 4.552v6.885c0 1.284.058 2.334.463 3.035h-4.454zm11.741-2.626c.868 0 1.33-.525 1.33-2.334v-.934h4.164c0 2.218-.347 3.735-1.214 4.785-.926.992-2.371 1.459-4.28 1.459-3.586 0-6.015-1.109-6.015-7.12 0-6.651 2.776-7.643 6.246-7.643 4.107 0 5.263 2.392 5.263 5.893h-4.164c0-1.167-.115-1.809-.289-2.276-.231-.466-.52-.583-1.041-.583-1.041 0-1.388.933-1.388 4.376 0 3.443.347 4.377 1.388 4.377z"/>
    <path fill="#E3271E" d="M101.502 21.882c0-3.034-.232-3.91-1.33-3.91-1.041 0-1.273.876-1.273 3.91 0 3.035.231 3.91 1.273 3.91 1.098 0 1.33-.875 1.33-3.91z"/>
</svg>