<?xml version="1.0" standalone="no"?>
<!DOCTYPE svg PUBLIC "-//W3C//DTD SVG 20010904//EN"
 "http://www.w3.org/TR/2001/REC-SVG-20010904/DTD/svg10.dtd">
<svg version="1.0" xmlns="http://www.w3.org/2000/svg"
 width="435.000000pt" height="435.000000pt" viewBox="0 0 435.000000 435.000000"
 preserveAspectRatio="xMidYMid meet">
<metadata>
Created by potrace 1.11, written by Peter Selinger 2001-2013
</metadata>
<g transform="translate(0.000000,435.000000) scale(0.100000,-0.100000)"
fill="#000000" stroke="none">
<path d="M2871 3766 c-58 -90 -139 -162 -196 -174 -66 -14 -116 2 -176 56 -56
50 -62 48 -73 -18 -27 -173 -269 -440 -396 -440 -117 0 -245 99 -403 313 l-29
38 -54 -50 c-81 -74 -161 -84 -259 -34 -23 12 -85 60 -138 108 -54 48 -99 86
-101 84 -1 -2 -8 -51 -14 -109 -14 -134 -33 -196 -76 -252 -39 -51 -94 -78
-156 -78 -22 0 -40 -5 -40 -10 0 -6 20 -34 44 -64 101 -125 131 -253 72 -315
-42 -44 -117 -72 -209 -79 -53 -3 -80 -9 -84 -18 -3 -8 15 -35 40 -60 59 -59
82 -107 82 -169 0 -68 -35 -135 -108 -206 -32 -32 -56 -62 -53 -67 3 -5 31
-22 62 -38 69 -35 170 -131 209 -198 21 -36 29 -62 29 -99 0 -45 -4 -53 -33
-78 -19 -15 -56 -33 -82 -39 -27 -7 -51 -15 -54 -19 -7 -12 58 -103 112 -157
106 -108 200 -165 328 -199 83 -22 245 -22 356 1 49 10 92 15 95 11 11 -11
-59 -110 -133 -188 -137 -145 -351 -310 -620 -475 -76 -47 -142 -89 -147 -94
-4 -4 31 -31 80 -60 l87 -51 81 55 c285 196 569 453 712 645 40 53 64 65 64
32 0 -10 13 -71 29 -135 33 -130 109 -288 174 -362 72 -81 272 -195 373 -211
32 -5 34 -4 34 24 0 42 26 113 53 141 94 101 284 94 515 -19 l123 -60 79 80
c94 94 186 145 292 161 69 11 167 2 222 -19 41 -16 48 -3 30 54 -20 66 -13
166 17 231 39 82 120 154 242 214 59 29 107 56 107 60 0 4 -24 20 -54 34 -138
67 -221 239 -215 444 1 40 -2 76 -7 81 -5 4 -37 18 -71 31 -125 45 -215 118
-266 215 -29 55 -32 68 -31 150 1 103 19 159 83 254 45 65 90 108 156 146 25
15 45 30 45 34 0 4 -15 22 -34 40 -102 99 -107 290 -10 417 19 24 34 48 34 52
0 4 -17 16 -37 27 -84 46 -124 221 -87 388 9 38 -6 35 -79 -17 -95 -67 -147
-94 -211 -110 -131 -34 -221 23 -257 162 -6 23 -15 44 -19 47 -4 3 -26 -24
-49 -59z"/>
</g>
</svg>
